# AST/ASF file generated using VICON BodyLanguage
# -----------------------------------------------
:version 1.10
:name VICON
:units
  mass 1.0
  length 0.45
  angle deg
:documentation
   .ast/.asf automatically generated from VICON data using
   VICON BodyBuilder and BodyLanguage model FoxedUp or BRILLIANT.MOD
:root
   order TX TY TZ RX RY RZ
   axis XYZ
   position 0 0 0  
   orientation 0 0 0 
:bonedata
  begin
     id 1 
     name lhipjoint
     direction 0.625129 -0.738222 0.253461 
     length 2.5165 
     axis 0 0 0  XYZ
  end
  begin
     id 2 
     name lfemur
     direction 0.34202 -0.939693 0  
     length 7.54288  
     axis 0 0 20  XYZ
    dof rx ry rz
    limits (-160.0 20.0)
           (-70.0 70.0)
           (-60.0 70.0)
  end
  begin
     id 3 
     name ltibia
     direction 0.34202 -0.939693 0   
     length 7.71864   
     axis 0 0 20   XYZ
    dof rx
    limits (-10.0 170.0)
  end
  begin
     id 4 
     name lfoot
     direction 0.0772037 -0.212115 0.97419   
     length 2.18429   
     axis -90 7.62852e-016 20   XYZ
    dof rx rz
    limits (-45.0 90.0)
           (-70.0 20.0)
  end
  begin
     id 5 
     name ltoes
     direction 1.53513e-011 -4.21834e-011 1   
     length 1.09718   
     axis -90 7.62852e-016 20   XYZ
    dof rx
    limits (-90.0 20.0)
  end
  begin
     id 6 
     name rhipjoint
     direction -0.621946 -0.740623 0.254285   
     length 2.50835  
     axis 0 0 0  XYZ 
  end
  begin
     id 7 
     name rfemur
     direction -0.34202 -0.939693 0   
     length 7.43366   
     axis 0 0 -20   XYZ
    dof rx ry rz
    limits (-160.0 20.0)
           (-70.0 70.0)
           (-70.0 60.0)
  end
  begin
     id 8 
     name rtibia
     direction -0.34202 -0.939693 0   
     length 7.77122   
     axis 0 0 -20   XYZ
    dof rx
    limits (-10.0 170.0)
 end
 begin
     id 9 
     name rfoot
     direction -0.082694 -0.2272 0.970331   
     length 2.2293  
     axis -90 -7.62852e-016 -20   XYZ
    dof rx rz
    limits (-45.0 90.0)
           (-20.0 70.0)
  end
  begin
     id 10 
     name rtoes
     direction -1.53565e-011 -4.21695e-011 1   
     length 1.1178   
     axis -90 -7.62852e-016 -20   XYZ
    dof rx
    limits (-90.0 20.0)
  end
  begin
     id 11 
     name lowerback
     direction -0.000695208 0.988391 -0.151929   
     length 1.95077   
     axis 0 0 0   XYZ
    dof rx ry rz
    limits (-20.0 45.0)
           (-30.0 30.0)
           (-30.0 30.0)
  end
  begin
     id 12 
     name upperback
     direction -0.00268925 0.999885 -0.0149203   
     length 1.96246   
     axis 0 0 0   XYZ
    dof rx ry rz
    limits (-20.0 45.0)
           (-30.0 30.0)
           (-30.0 30.0)
  end
  begin
     id 13 
     name thorax
     direction -0.000848408 0.998481 0.0550912   
     length 2.00867   
     axis 0 0 0   XYZ
    dof rx ry rz
    limits (-20.0 45.0)
           (-30.0 30.0)
           (-30.0 30.0)
  end
  begin
     id 14 
     name lowerneck
     direction -0.00577709 0.998999 0.0443608   
     length 1.75762   
     axis 0 0 0   XYZ
    dof rx ry rz
    limits (-20.0 45.0)
           (-30.0 30.0)
           (-30.0 30.0)
  end
  begin
     id 15 
     name upperneck
     direction 0.0320945 0.999136 0.0264105   
     length 1.72601   
     axis 0 0 0   XYZ
    dof rx ry rz
    limits (-20.0 45.0)
           (-30.0 30.0)
           (-30.0 30.0)
  end
  begin
     id 16
     name head
     direction 0.0120552 0.999916 0.00480151  
     length 1.79973  
     axis 0 0 0   XYZ
    dof rx ry rz
    limits (-20.0 45.0)
           (-30.0 30.0)
           (-30.0 30.0)
  end
  begin
     id 17 
     name lclavicle
     direction 0.909 0.371533 -0.188897  
     length 3.47956  
     axis 0 0 0   XYZ
    dof ry rz
    limits (-20.0 10.0)
           (0.0 20.0)
  end
  begin
     id 18 
     name lhumerus
     direction 1 -4.48963e-011 -6.48352e-028   
     length 5.52302   
     axis 180 -30 -90   XYZ
    dof rx ry rz
    limits (-60.0 90.0)
           (-90.0 90.0)
           (-90.0 90.0)
  end
  begin
     id 19
     name lradius
     direction 1 -4.48968e-011 -4.78536e-027   
     length 3.58675   
     axis 180 -30 -90   XYZ
    dof rx
    limits (-10.0 170.0)
  end
  begin
     id 20
     name lwrist
     direction 1 -4.48942e-011 -9.9435e-027   
     length 1.79337   
     axis 8.54312e-015 90 90   XYZ
    dof ry
    limits (-180.0 0.0)
 end
  begin
     id 21 
     name lhand
     direction 1 -4.4904e-011 -1.9887e-026   
     length 0.536412   
     axis 1.26896e-014 90 90   XYZ
    dof rx rz
    limits (-90.0 90.0)
           (-45.0 45.0)
  end
  begin
     id 22 
     name lfingers
     direction 1 -4.48893e-011 -3.9774e-026   
     length 0.432469   
     axis 2.53792e-014 90 90   XYZ
    dof rx
    limits (0.0 90.0)
  end
  begin
     id 23
     name lthumb
     direction 0.707107 -6.34934e-011 0.707107   
     length 0.620942   
     axis -90 45 2.85299e-015   XYZ
    dof rx rz
    limits (-45.0 45.0)
           (-45.0 45.0)
  end
  begin
     id 24 
     name rclavicle
     direction -0.89595 0.416672 -0.153813   
     length 3.44099  
     axis 0 0 0   XYZ 
    dof ry rz
    limits (-10.0 20.0)
           (-20.0 0.0)
  end
  begin
     id 25 
     name rhumerus
     direction -1 -4.48952e-011 5.57804e-028  
     length 5.8478   
     axis 180 30 90   XYZ
    dof rx ry rz
    limits (-90.0 60.0)
           (-90.0 90.0)
           (-90.0 90.0)
  end
  begin
     id 26 
     name rradius
     direction -1 -4.48967e-011 -7.93646e-027   
     length 3.62717   
     axis 180 30 90   XYZ
    dof rx
    limits (-10.0 170.0)
  end
  begin
     id 27 
     name rwrist
     direction -1 -4.49008e-011 -9.9435e-027   
     length 1.81359   
     axis 8.54312e-015 -90 -90   XYZ
    dof ry
    limits (-180.0 0.0)
  end
  begin
     id 28
     name rhand
     direction -1 -4.48812e-011 -1.9887e-026   
     length 0.650516   
     axis 1.26896e-014 -90 -90   XYZ
    dof rx rz
    limits (-90.0 90.0)
           (-45.0 45.0)
  end
  begin
     id 29
     name rfingers
     direction -1 -4.49228e-011 -3.9774e-026   
     length 0.524463   
     axis 2.53792e-014 -90 -90   XYZ
    dof rx
    limits (0.0 90.0)
  end
  begin
     id 30
     name rthumb
     direction -0.707107 -6.34912e-011 0.707107   
     length 0.753027   
     axis -90 -45 -2.85299e-015   XYZ
    dof rx rz
    limits (-45.0 45.0)
           (-45.0 45.0)
  end
:hierarchy
  begin
    root lhipjoint rhipjoint lowerback
    lhipjoint lfemur
    lfemur ltibia
    ltibia lfoot
    lfoot ltoes
    rhipjoint rfemur
    rfemur rtibia
    rtibia rfoot
    rfoot rtoes
    lowerback upperback
    upperback thorax
    thorax lowerneck lclavicle rclavicle
    lowerneck upperneck
    upperneck head
    lclavicle lhumerus
    lhumerus lradius
    lradius lwrist
    lwrist lhand lthumb
    lhand lfingers
    rclavicle rhumerus
    rhumerus rradius
    rradius rwrist
    rwrist rhand rthumb
    rhand rfingers
  end

#!OML:ASF F:\VICON\USERDATA\INSTALL\rory3\rory3.ASF
:FULLY-SPECIFIED
:DEGREES
98
root 0.255823 17.424 22.3658 4.65 2.30697 1.33196
lowerback 16.7744 -2.39911 -3.94795
upperback 1.18064 -4.01046 -1.2547
thorax -7.95415 -1.8151 1.81359
lowerneck -3.3815 1.62102 -2.19526
upperneck -10.232 2.3784 2.39888
head -2.7314 1.19905 1.11221
rclavicle 1.70955e-014 -7.15625e-015
rhumerus -55.4842 5.84023 -83.35
rradius 76.1233
rwrist -4.355
rhand -41.3736 32.924
rfingers 7.12502
rthumb -14.2916 3.43586
lclavicle 1.70955e-014 -7.15625e-015
lhumerus -12.0013 -16.8005 84.2732
lradius 116.163
lwrist 34.6845
lhand -33.6728 4.35104
lfingers 7.12502
lthumb -6.86368 34.2198
rfemur -39.1267 -5.7167 19.845
rtibia 101.101
rfoot 12.5453 -3.57779
rtoes 5.78652
lfemur -3.36294 -1.67682 -26.5304
ltibia 38.2302
lfoot -13.9425 -1.96811
ltoes -25.9374
99
root 0.254429 17.5101 22.898 4.75649 2.23202 1.51615
lowerback 16.3211 -2.66579 -4.42632
upperback 1.23247 -4.40799 -1.06099
thorax -7.57279 -2.00038 2.3475
lowerneck -3.72087 1.86183 -2.08538
upperneck -9.96908 2.67674 2.09429
head -2.58186 1.35315 0.99247
rclavicle 5.36719e-015 1.82882e-014
rhumerus -56.029 6.26466 -83.5509
rradius 76.5051
rwrist -3.96804
rhand -40.9047 32.9218
rfingers 7.12502
rthumb -13.8398 3.40222
lclavicle 5.36719e-015 1.82882e-014
lhumerus -12.0013 -16.8005 84.2732
lradius 116.163
lwrist 34.6845
lhand -33.6728 4.35104
lfingers 7.12502
lthumb -6.86368 34.2198
rfemur -40.597 -5.11515 19.9162
rtibia 98.4008
rfoot 11.0934 -3.25384
rtoes 4.6081
lfemur -1.06504 -1.47274 -26.5191
ltibia 36.7791
lfoot -11.7218 -2.75957
ltoes -28.2356
100
root 0.256899 17.6075 23.4528 4.80326 2.19262 1.81407
lowerback 16.0942 -2.91201 -4.66121
upperback 1.02882 -4.77175 -1.05143
thorax -7.62342 -2.1644 2.55924
lowerneck -3.64031 1.99413 -1.80779
upperneck -9.61868 2.81438 1.70506
head -2.46877 1.4208 0.817651
rclavicle 4.37326e-015 7.95139e-016
rhumerus -57.1289 6.40359 -83.8137
rradius 76.977
rwrist -3.69721
rhand -40.4409 32.7719
rfingers 7.12502
rthumb -13.3928 3.22241
lclavicle 4.37326e-015 7.95139e-016
lhumerus -12.0013 -16.8005 84.2732
lradius 116.163
lwrist 34.6845
lhand -33.6728 4.35104
lfingers 7.12502
lthumb -6.86368 34.2198
rfemur -41.5302 -4.62241 19.7416
rtibia 95.2142
rfoot 9.84181 -3.10931
rtoes 4.39542
lfemur 1.45748 -1.37771 -26.6118
ltibia 34.828
lfoot -8.34812 -3.92971
ltoes -27.2748
101
root 0.255685 17.7016 24.0173 4.8608 2.27972 1.86885
lowerback 15.6364 -3.21333 -4.66545
upperback 0.869293 -5.14196 -0.921375
thorax -7.50213 -2.34466 2.75126
lowerneck -3.60125 2.14509 -1.72361
upperneck -9.13704 2.98611 1.38406
head -2.31078 1.5106 0.699617
rclavicle 4.23411e-014 1.27222e-014
rhumerus -58.2174 6.63413 -84.04
rradius 77.48
rwrist -3.41922
rhand -40.6183 32.346
rfingers 7.12502
rthumb -13.5638 2.80784
lclavicle 4.23411e-014 1.27222e-014
lhumerus -12.0013 -16.8005 84.2732
lradius 116.163
lwrist 34.6845
lhand -33.6728 4.35104
lfingers 7.12502
lthumb -6.86368 34.2198
rfemur -42.2189 -4.12027 19.8369
rtibia 91.6522
rfoot 8.8273 -3.20036
rtoes 5.21186
lfemur 4.02466 -1.28553 -26.3563
ltibia 32.5196
lfoot -3.93609 -5.08185
ltoes -24.9338
102
root 0.256039 17.8043 24.591 4.88299 2.46761 1.75094
lowerback 15.0812 -3.50479 -4.3971
upperback 0.774305 -5.44679 -0.809497
thorax -7.28625 -2.50778 2.74423
lowerneck -3.55556 2.23863 -1.60674
upperneck -8.73265 3.09094 1.17541
head -2.18058 1.56322 0.613439
rclavicle 5.96354e-016 -3.18055e-015
rhumerus -59.3266 6.64019 -84.2863
rradius 77.8817
rwrist -3.18698
rhand -40.5297 32.7815
rfingers 7.12502
rthumb -13.4784 3.23765
lclavicle 5.96354e-016 -3.18055e-015
lhumerus -12.326 -16.7347 84.9655
lradius 118.749
lwrist 29.8496
lhand -37.9889 2.27368
lfingers 7.12502
lthumb -11.0285 31.964
rfemur -42.6414 -3.5939 20.0775
rtibia 87.6627
rfoot 7.40922 -3.15835
rtoes 3.27665
lfemur 6.63493 -1.33612 -25.8692
ltibia 30.0192
lfoot 0.814141 -5.71066
ltoes -22.0176
103
root 0.264959 17.9052 25.1567 4.82371 2.0713 1.60101
lowerback 14.6372 -3.60108 -4.20586
upperback 0.79903 -5.51104 -0.70377
thorax -7.01462 -2.55489 2.72627
lowerneck -3.82716 2.28488 -1.54911
upperneck -8.37746 3.14827 1.1228
head -2.01564 1.59152 0.590931
rclavicle -5.34731e-014 -7.95139e-016
rhumerus -60.1806 6.62545 -84.4542
rradius 78.3085
rwrist -3.07658
rhand -40.1714 33.3515
rfingers 7.12502
rthumb -13.133 3.78504
lclavicle -5.34731e-014 -7.95139e-016
lhumerus -12.7409 -16.8574 85.1292
lradius 119.309
lwrist 30.5519
lhand -38.4028 1.43723
lfingers 7.12502
lthumb -11.4277 31.1058
rfemur -42.9653 -2.60011 20.2035
rtibia 83.4032
rfoot 6.33843 -3.09377
rtoes 2.24217
lfemur 9.20952 -1.04846 -25.4997
ltibia 27.4721
lfoot 5.52667 -5.36003
ltoes -21.042
104
root 0.268479 17.9886 25.7069 4.92099 1.37665 1.02603
lowerback 14.4087 -3.63422 -3.77082
upperback 0.687013 -5.45792 -0.430137
thorax -7.02379 -2.53831 2.75121
lowerneck -4.32146 2.32619 -1.38128
upperneck -7.88053 3.18738 0.893069
head -1.762 1.611 0.498354
rclavicle 8.83598e-014 4.37326e-015
rhumerus -60.969 6.6687 -84.5362
rradius 78.791
rwrist -2.84376
rhand -40.2455 33.4236
rfingers 7.12502
rthumb -13.2044 3.86183
lclavicle 8.83598e-014 4.37326e-015
lhumerus -13.26 -17.1251 85.2619
lradius 120.112
lwrist 31.4354
lhand -38.5523 3.98391
lfingers 7.12502
lthumb -11.5719 33.6444
rfemur -43.3802 -1.30475 20.83
rtibia 78.9535
rfoot 5.66766 -3.06954
rtoes 2.24449
lfemur 11.5943 -0.732454 -24.7529
ltibia 24.7476
lfoot 10.7503 -4.18787
ltoes -19.3273
105
root 0.267517 18.0515 26.2588 4.97041 0.440977 0.29563
lowerback 14.2209 -3.51725 -3.29753
upperback 0.427245 -5.20378 -0.0991417
thorax -7.22475 -2.417 2.78795
lowerneck -4.09388 2.36083 -1.10505
upperneck -7.5581 3.19561 0.403943
head -1.68212 1.61446 0.299361
rclavicle -3.81667e-014 1.19271e-015
rhumerus -61.992 6.64668 -84.5002
rradius 79.2503
rwrist -2.52694
rhand -40.2049 33.4947
rfingers 7.12502
rthumb -13.1653 3.9303
lclavicle -3.81667e-014 1.19271e-015
lhumerus -14.1413 -17.5155 85.645
lradius 120.77
lwrist 32.1647
lhand -38.1295 5.69507
lfingers 7.12502
lthumb -11.1642 35.3781
rfemur -43.5344 0.171457 21.5813
rtibia 74.3412
rfoot 5.05891 -3.00004
rtoes 1.26549
lfemur 14.2221 -0.575416 -24.0375
ltibia 21.7554
lfoot 16.2191 -2.2877
ltoes -17.7658
106
root 0.277951 18.1075 26.8285 4.92392 -0.121619 0.486779
lowerback 13.8883 -3.48319 -3.46266
upperback 0.206403 -5.1773 -0.0553816
thorax -7.25881 -2.39531 2.90597
lowerneck -3.74106 2.44561 -1.03773
upperneck -7.18044 3.29127 0.167698
head -1.61614 1.66324 0.212811
rclavicle -2.97183e-014 2.38542e-015
rhumerus -63.0989 6.6724 -84.5076
rradius 79.6823
rwrist -2.20247
rhand -40.0415 32.8363
rfingers 7.12502
rthumb -13.0077 3.26186
lclavicle -2.97183e-014 2.38542e-015
lhumerus -15.1582 -17.9058 86.0835
lradius 121.066
lwrist 32.3268
lhand -38.0386 4.56503
lfingers 7.12502
lthumb -11.0765 34.2527
rfemur -43.3266 0.905094 21.2274
rtibia 69.6642
rfoot 4.29525 -2.77535
rtoes 0.244308
lfemur 17.0804 -0.652022 -24.379
ltibia 18.5711
lfoot 21.7308 0.0304146
ltoes -14.5597
107
root 0.290856 18.1796 27.4166 5.00483 -0.430632 0.932695
lowerback 13.3355 -3.55877 -3.7717
upperback 0.108817 -5.30996 -0.0880562
thorax -7.01982 -2.45779 3.02854
lowerneck -3.94595 2.60325 -0.976584
upperneck -6.76075 3.49567 0.0333054
head -1.44533 1.76496 0.166688
rclavicle -9.30312e-014 -1.35174e-014
rhumerus -63.9393 6.73058 -84.5291
rradius 80.1916
rwrist -1.67112
rhand -40.2168 32.1731
rfingers 7.12502
rthumb -13.1768 2.60954
lclavicle -9.30312e-014 -1.35174e-014
lhumerus -15.897 -18.1169 86.3178
lradius 121.047
lwrist 32.0612
lhand -38.3584 2.85349
lfingers 7.12502
lthumb -11.3849 32.5244
rfemur -42.9792 1.40908 20.556
rtibia 64.7714
rfoot 3.36466 -2.62403
rtoes -1.1377
lfemur 19.946 -0.993046 -25.0253
ltibia 15.0371
lfoot 27.14 3.08212
ltoes -9.0873
